<svg viewBox="0 0 6334 1440" xmlns="http://www.w3.org/2000/svg" style="fill-rule:evenodd;clip-rule:evenodd;stroke-linecap:round;stroke-linejoin:round;stroke-miterlimit:1.5;"><defs><linearGradient id="g" x1="0" y1="0" x2="1" y2="0" gradientUnits="userSpaceOnUse" gradientTransform="matrix(-869.752569,-754.055578,754.055578,-869.752569,1244.178516,1097.027789)"><stop offset="0" stop-color="#4284db"/><stop offset="1" stop-color="#29eac4"/></linearGradient></defs><path d="M432.274442742767,1154.876284280434c-240.014755090495,-208.087301335797 -265.935796734105,-571.889318072064 -57.848495398308,-811.90407316256c208.087301335797,-240.014755090495 571.889318072064,-265.935796734105 811.90407316256,-57.848495398308c240.014755090495,208.087301335797 265.935796734105,571.889318072064 57.848495398308,811.90407316256c-208.087301335797,240.014755090495 -571.889318072064,265.935796734105 -811.90407316256,57.848495398308Z" fill="none" stroke="url(#g)" stroke-width="177.22"/><g transform="matrix(1111.111111,0,0,1111.111111,1608.486953,1054.220486)"><path d="M0.279296875,0.0107421875c-0.0439453125,0 -0.082845052083,-0.006266276042 -0.11669921875,-0.018798828125c-0.033854166667,-0.012532552083 -0.0615234375,-0.03076171875 -0.0830078125,-0.0546875c-0.021484375,-0.02392578125 -0.035319010417,-0.052815755208 -0.04150390625,-0.086669921875l0.13623046875,-0.0234375c0.007161458333,0.025390625 0.019694010417,0.04443359375 0.03759765625,0.05712890625c0.017903645833,0.0126953125 0.041829427083,0.01904296875 0.07177734375,0.01904296875c0.027994791667,0 0.050048828125,-0.005289713542 0.066162109375,-0.015869140625c0.01611328125,-0.010579427083 0.024169921875,-0.024007161458 0.024169921875,-0.040283203125c0,-0.014322916667 -0.005777994792,-0.026041666667 -0.017333984375,-0.03515625c-0.011555989583,-0.009114583333 -0.029215494792,-0.01611328125 -0.052978515625,-0.02099609375l-0.09423828125,-0.01953125c-0.052734375,-0.0107421875 -0.092122395833,-0.029052734375 -0.1181640625,-0.054931640625c-0.026041666667,-0.02587890625 -0.0390625,-0.059163411458 -0.0390625,-0.099853515625c0,-0.03515625 0.009602864583,-0.065348307292 0.02880859375,-0.090576171875c0.019205729167,-0.025227864583 0.0458984375,-0.044677734375 0.080078125,-0.058349609375c0.0341796875,-0.013671875 0.074381510417,-0.0205078125 0.12060546875,-0.0205078125c0.04296875,0 0.080240885417,0.005940755208 0.11181640625,0.017822265625c0.031575520833,0.011881510417 0.05712890625,0.028727213542 0.07666015625,0.050537109375c0.01953125,0.021809895833 0.032552083333,0.047526041667 0.0390625,0.0771484375l-0.1298828125,0.02294921875c-0.005533854167,-0.0185546875 -0.016194661458,-0.033772786458 -0.031982421875,-0.045654296875c-0.015787760417,-0.011881510417 -0.037027994792,-0.017822265625 -0.063720703125,-0.017822265625c-0.024088541667,0 -0.044270833333,0.005045572917 -0.060546875,0.01513671875c-0.016276041667,0.010091145833 -0.0244140625,0.023600260417 -0.0244140625,0.04052734375c0,0.013671875 0.005289713542,0.025227864583 0.015869140625,0.03466796875c0.010579427083,0.009440104167 0.028727213542,0.016764322917 0.054443359375,0.02197265625l0.09814453125,0.01953125c0.052734375,0.0107421875 0.091959635417,0.028238932292 0.11767578125,0.052490234375c0.025716145833,0.024251302083 0.03857421875,0.055908203125 0.03857421875,0.094970703125c0,0.035807291667 -0.010416666667,0.067138671875 -0.03125,0.093994140625c-0.020833333333,0.02685546875 -0.049560546875,0.047770182292 -0.086181640625,0.062744140625c-0.03662109375,0.014973958333 -0.078857421875,0.0224609375 -0.126708984375,0.0224609375Z" style="fill-rule:nonzero;"/></g><g transform="matrix(1111.111111,0,0,1111.111111,2230.77428,1054.220486)"><path d="M0.208984375,-0.31591796875l0,0.31591796875l-0.146484375,-0l0,-0.7275390625l0.1435546875,0l0,0.31787109375l-0.01171875,0c0.014322916667,-0.045572916667 0.036051432292,-0.080810546875 0.065185546875,-0.105712890625c0.029134114583,-0.02490234375 0.066813151042,-0.037353515625 0.113037109375,-0.037353515625c0.037760416667,0 0.070719401042,0.008219401042 0.098876953125,0.024658203125c0.028157552083,0.016438802083 0.050048828125,0.0400390625 0.065673828125,0.07080078125c0.015625,0.03076171875 0.0234375,0.067464192708 0.0234375,0.110107421875l0,0.34716796875l-0.14697265625,-0l0,-0.32177734375c0,-0.033854166667 -0.008707682292,-0.060384114583 -0.026123046875,-0.07958984375c-0.017415364583,-0.019205729167 -0.041585286458,-0.02880859375 -0.072509765625,-0.02880859375c-0.0205078125,0 -0.038818359375,0.004475911458 -0.054931640625,0.013427734375c-0.01611328125,0.008951822917 -0.028645833333,0.021891276042 -0.03759765625,0.038818359375c-0.008951822917,0.016927083333 -0.013427734375,0.03759765625 -0.013427734375,0.06201171875Z" style="fill-rule:nonzero;"/></g><g transform="matrix(1111.111111,0,0,1111.111111,2922.506051,1054.220486)"><rect x="0.068359375" y="-0.35791015625" width="0.3310546875" height="0.1171875" style="fill-rule:nonzero;"/></g><g transform="matrix(1111.111111,0,0,1111.111111,3442.254314,1054.220486)"><path d="M0.306640625,0.0107421875c-0.055013020833,0 -0.102457682292,-0.011800130208 -0.142333984375,-0.035400390625c-0.039876302083,-0.023600260417 -0.070638020833,-0.056477864583 -0.09228515625,-0.0986328125c-0.021647135417,-0.042154947917 -0.032470703125,-0.091227213542 -0.032470703125,-0.147216796875c0,-0.056640625 0.010823567708,-0.106038411458 0.032470703125,-0.148193359375c0.021647135417,-0.042154947917 0.052408854167,-0.075032552083 0.09228515625,-0.0986328125c0.039876302083,-0.023600260417 0.087320963542,-0.035400390625 0.142333984375,-0.035400390625c0.0322265625,0 0.06201171875,0.004231770833 0.08935546875,0.0126953125c0.02734375,0.008463541667 0.051595052083,0.0205078125 0.07275390625,0.0361328125c0.021158854167,0.015625 0.03857421875,0.03466796875 0.05224609375,0.05712890625c0.013671875,0.0224609375 0.023111979167,0.047688802083 0.0283203125,0.07568359375l-0.13623046875,0.025390625c-0.0029296875,-0.014322916667 -0.007486979167,-0.027099609375 -0.013671875,-0.038330078125c-0.006184895833,-0.01123046875 -0.013671875,-0.020833333333 -0.0224609375,-0.02880859375c-0.0087890625,-0.007975260417 -0.018961588542,-0.014078776042 -0.030517578125,-0.018310546875c-0.011555989583,-0.004231770833 -0.024332682292,-0.00634765625 -0.038330078125,-0.00634765625c-0.026041666667,0 -0.047932942708,0.006998697917 -0.065673828125,0.02099609375c-0.017740885417,0.013997395833 -0.031087239583,0.033528645833 -0.0400390625,0.05859375c-0.008951822917,0.025065104167 -0.013427734375,0.054036458333 -0.013427734375,0.0869140625c0,0.0322265625 0.004475911458,0.060872395833 0.013427734375,0.0859375c0.008951822917,0.025065104167 0.022298177083,0.044759114583 0.0400390625,0.05908203125c0.017740885417,0.014322916667 0.039632161458,0.021484375 0.065673828125,0.021484375c0.013997395833,0 0.02685546875,-0.002197265625 0.03857421875,-0.006591796875c0.01171875,-0.00439453125 0.022135416667,-0.0107421875 0.03125,-0.01904296875c0.009114583333,-0.00830078125 0.016764322917,-0.018310546875 0.02294921875,-0.030029296875c0.006184895833,-0.01171875 0.010579427083,-0.02490234375 0.01318359375,-0.03955078125l0.13623046875,0.02490234375c-0.005208333333,0.028971354167 -0.0146484375,0.054768880208 -0.0283203125,0.077392578125c-0.013671875,0.022623697917 -0.031087239583,0.042073567708 -0.05224609375,0.058349609375c-0.021158854167,0.016276041667 -0.045491536458,0.028645833333 -0.072998046875,0.037109375c-0.027506510417,0.008463541667 -0.057535807292,0.0126953125 -0.090087890625,0.0126953125Z" style="fill-rule:nonzero;"/></g><g transform="matrix(1111.111111,0,0,1111.111111,4096.008655,1054.220486)"><path d="M0.306640625,0.0107421875c-0.0546875,0 -0.10205078125,-0.011800130208 -0.14208984375,-0.035400390625c-0.0400390625,-0.023600260417 -0.070882161458,-0.056477864583 -0.092529296875,-0.0986328125c-0.021647135417,-0.042154947917 -0.032470703125,-0.091227213542 -0.032470703125,-0.147216796875c0,-0.056640625 0.010823567708,-0.106038411458 0.032470703125,-0.148193359375c0.021647135417,-0.042154947917 0.052490234375,-0.075032552083 0.092529296875,-0.0986328125c0.0400390625,-0.023600260417 0.08740234375,-0.035400390625 0.14208984375,-0.035400390625c0.055013020833,0 0.102457682292,0.011800130208 0.142333984375,0.035400390625c0.039876302083,0.023600260417 0.070638020833,0.056477864583 0.09228515625,0.0986328125c0.021647135417,0.042154947917 0.032470703125,0.091552734375 0.032470703125,0.148193359375c0,0.055989583333 -0.010823567708,0.105061848958 -0.032470703125,0.147216796875c-0.021647135417,0.042154947917 -0.052408854167,0.075032552083 -0.09228515625,0.0986328125c-0.039876302083,0.023600260417 -0.087320963542,0.035400390625 -0.142333984375,0.035400390625Zm0,-0.115234375c0.026041666667,0 0.0478515625,-0.007242838542 0.0654296875,-0.021728515625c0.017578125,-0.014485677083 0.03076171875,-0.034342447917 0.03955078125,-0.0595703125c0.0087890625,-0.025227864583 0.01318359375,-0.053629557292 0.01318359375,-0.085205078125c0,-0.0322265625 -0.00439453125,-0.060872395833 -0.01318359375,-0.0859375c-0.0087890625,-0.025065104167 -0.02197265625,-0.044759114583 -0.03955078125,-0.05908203125c-0.017578125,-0.014322916667 -0.039388020833,-0.021484375 -0.0654296875,-0.021484375c-0.026041666667,0 -0.047770182292,0.007161458333 -0.065185546875,0.021484375c-0.017415364583,0.014322916667 -0.030517578125,0.034016927083 -0.039306640625,0.05908203125c-0.0087890625,0.025065104167 -0.01318359375,0.0537109375 -0.01318359375,0.0859375c0,0.031575520833 0.00439453125,0.059977213542 0.01318359375,0.085205078125c0.0087890625,0.025227864583 0.021891276042,0.045084635417 0.039306640625,0.0595703125c0.017415364583,0.014485677083 0.039143880208,0.021728515625 0.065185546875,0.021728515625Z" style="fill-rule:nonzero;"/></g><g transform="matrix(1111.111111,0,0,1111.111111,4777.432266,1054.220486)"><path d="M0.208984375,-0.31591796875l0,0.31591796875l-0.146484375,-0l0,-0.5458984375l0.13818359375,0l0.00244140625,0.13623046875l-0.0087890625,0c0.014322916667,-0.045572916667 0.036051432292,-0.080810546875 0.065185546875,-0.105712890625c0.029134114583,-0.02490234375 0.066813151042,-0.037353515625 0.113037109375,-0.037353515625c0.037760416667,0 0.070719401042,0.008219401042 0.098876953125,0.024658203125c0.028157552083,0.016438802083 0.049967447917,0.0400390625 0.0654296875,0.07080078125c0.015462239583,0.03076171875 0.023193359375,0.067464192708 0.023193359375,0.110107421875l0,0.34716796875l-0.146484375,-0l0,-0.32177734375c0,-0.033854166667 -0.008707682292,-0.060384114583 -0.026123046875,-0.07958984375c-0.017415364583,-0.019205729167 -0.041585286458,-0.02880859375 -0.072509765625,-0.02880859375c-0.0205078125,0 -0.038818359375,0.004475911458 -0.054931640625,0.013427734375c-0.01611328125,0.008951822917 -0.028645833333,0.021891276042 -0.03759765625,0.038818359375c-0.008951822917,0.016927083333 -0.013427734375,0.03759765625 -0.013427734375,0.06201171875Z" style="fill-rule:nonzero;"/></g><g transform="matrix(1111.111111,0,0,1111.111111,5450.175321,1054.220486)"><path d="M0.21630859375,-0l-0.201171875,-0.5458984375l0.15576171875,0l0.091796875,0.283203125c0.011067708333,0.035481770833 0.020751953125,0.0712890625 0.029052734375,0.107421875c0.00830078125,0.0361328125 0.016845703125,0.073567708333 0.025634765625,0.1123046875l-0.03125,0c0.008463541667,-0.038736979167 0.016764322917,-0.076171875 0.02490234375,-0.1123046875c0.008138020833,-0.0361328125 0.017740885417,-0.071940104167 0.02880859375,-0.107421875l0.0908203125,-0.283203125l0.15380859375,0l-0.20166015625,0.5458984375l-0.16650390625,-0Z" style="fill-rule:nonzero;"/></g></svg>